HIERARCHY
ROOT Hips
{
	OFFSET 0.00000 0.00000 0.00000
	CHANNELS 6 Xposition Yposition Zposition Zrotation Yrotation Xrotation 
	JOINT LHipJoint
	{
		OFFSET 0 0 0
		CHANNELS 3 Zrotation Yrotation Xrotation
		JOINT LeftHip
		{
			OFFSET 1.59715 -1.91394 0.36268
			CHANNELS 3 Zrotation Yrotation Xrotation
			JOINT LeftKnee
			{
				OFFSET 2.53886 -6.97546 0.00000
				CHANNELS 3 Zrotation Yrotation Xrotation
				JOINT LeftAnkle
				{
					OFFSET 2.77084 -7.61284 0.00000
					CHANNELS 3 Zrotation Yrotation Xrotation
					JOINT LeftToe
					{
						OFFSET 0.19855 -0.54550 2.06057
						CHANNELS 3 Zrotation Yrotation Xrotation
						End Site
						{
							OFFSET 0.00000 -0.00000 1.07182
						}
					}
				}
			}
		}
	}
	JOINT RHipJoint
	{
		OFFSET 0 0 0
		CHANNELS 3 Zrotation Yrotation Xrotation
		JOINT RightHip
		{
			OFFSET -1.71086 -1.91394 0.36268
			CHANNELS 3 Zrotation Yrotation Xrotation
			JOINT RightKnee
			{
				OFFSET -2.59448 -7.12828 0.00000
				CHANNELS 3 Zrotation Yrotation Xrotation
				JOINT RightAnkle
				{
					OFFSET -2.80237 -7.69945 0.00000
					CHANNELS 3 Zrotation Yrotation Xrotation
					JOINT RightToe
					{
						OFFSET -0.18280 -0.50224 2.06614
						CHANNELS 3 Zrotation Yrotation Xrotation
						End Site
						{
							OFFSET -0.00000 -0.00000 1.07055
						}
					}
				}
			}
		}
	}
	JOINT lowerback
	{
		OFFSET 0 0 0
		CHANNELS 3 Zrotation Yrotation Xrotation
		JOINT Chest
		{
			OFFSET 0.04838 1.91536 -0.09733
			CHANNELS 3 Zrotation Yrotation Xrotation
			JOINT Chest2
			{
				OFFSET 0.04097 1.92183 -0.02751
				CHANNELS 3 Zrotation Yrotation Xrotation
				JOINT lowerneck
				{
					OFFSET 0 0 0
					CHANNELS 3 Zrotation Yrotation Xrotation
					JOINT Neck
					{
						OFFSET 0.18766 3.12816 0.13727
						CHANNELS 3 Zrotation Yrotation Xrotation
						JOINT Head
						{
							OFFSET -0.11178 3.16074 0.02732
							CHANNELS 3 Zrotation Yrotation Xrotation
							End Site
							{
								OFFSET 0.47685 1.04189 0.57898
							}
						}
					}
				}
				JOINT LeftCollar
				{
					OFFSET 0 0 0
					CHANNELS 3 Zrotation Yrotation Xrotation
					JOINT LeftShoulder
					{
						OFFSET 3.49325 0.99827 -0.10681
CHANNELS 3 Zrotation Xrotation Yrotation
						JOINT LeftElbow
						{
OFFSET 0 -5.128420 0.000000
CHANNELS 3 Zrotation Xrotation Yrotation
							JOINT LeftWrist
							{
OFFSET 0 -3.473960 0.000000
CHANNELS 3 Zrotation Xrotation Yrotation
								JOINT lhand
								{
									OFFSET 0 0 0
CHANNELS 3 Zrotation Xrotation Yrotation
									JOINT LFingers
									{
OFFSET 0 -0.728610 0.000000
CHANNELS 3 Zrotation Xrotation Yrotation
										End Site
										{
OFFSET 0 -0.587420 0.000000
										}
									}
								}
								JOINT LThumb
								{
OFFSET 0 0.000000 0.000000
CHANNELS 3 Zrotation Xrotation Yrotation
									End Site
									{
OFFSET 0 -0.596390 0.596390
									}
								}
							}
						}
					}
				}
				JOINT RightCollar
				{
					OFFSET 0 0 0
					CHANNELS 3 Zrotation Yrotation Xrotation
					JOINT RightShoulder
					{
						OFFSET -3.23261 1.50670 -0.18692
CHANNELS 3 Zrotation Xrotation Yrotation
						JOINT RightElbow
						{
OFFSET 0 -5.484770 -0.000000
CHANNELS 3 Zrotation Xrotation Yrotation
							JOINT RightWrist
							{
OFFSET 0 -3.478560 0.000000
CHANNELS 3 Zrotation Xrotation Yrotation
								JOINT rhand
								{
									OFFSET 0 0 0
CHANNELS 3 Zrotation Xrotation Yrotation
									JOINT RFingers
									{
OFFSET 0 -0.709970 0.000000
CHANNELS 3 Zrotation Xrotation Yrotation
										End Site
										{
OFFSET 0 -0.572400 0.000000
										}
									}
								}
								JOINT RThumb
								{
OFFSET 0 0.000000 0.000000
CHANNELS 3 Zrotation Xrotation Yrotation
									End Site
									{
OFFSET 0 -0.581140 0.581140
									}
								}
							}
						}
					}
				}
			}
		}
	}
}
MOTION
Frames: 6
Frame Time: 0.008333333333333333
-7.003445 17.863759 -10.567088 -183.045357 -76.059748 -174.041003 0.000000 0.000000 0.000000 -24.941887 -13.727515 -0.297405 3.369133 11.269935 33.195725 0.884317 -7.904661 -16.859231 0.020325 0.918614 2.524995 0.000000 0.000000 0.000000 20.301911 3.652411 -36.179789 -2.113804 -9.099114 26.105916 1.490094 -21.065122 -6.173945 -3.777741 -11.854758 35.224973 4.078094 3.915275 7.115016 2.300563 5.439924 2.238806 -0.346247 2.668552 -1.504174 2.560339 19.346407 -3.891007 -17.982927 29.837883 20.124621 -2.967845 12.471847 10.413057 0.000000 0.000000 0.000000 -4.421409 -2.228766 -25.469863 23.847042 -35.002033 7.618629 12.712325 13.981620 -29.243059 0.000000 0.000000 0.000000 -7.125000 0.000000 0.000000 -20.521106 58.636275 7.030287 0.000000 0.000000 0.000000 -9.910328 3.223329 13.168506 -20.828946 -31.628081 -5.960006 -28.159812 -15.561061 -13.557355 0.000000 0.000000 0.000000 7.125000 0.000000 0.000000 -0.524959 14.683269 -0.374782
-5.674673 17.855657 -9.898222 -183.013866 -75.031048 -175.620968 0.000000 0.000000 0.000000 -25.661010 -15.247441 -3.437309 3.397583 11.312460 33.341085 0.980489 -6.674762 -17.670470 0.121792 2.249760 6.196339 0.000000 0.000000 0.000000 17.742603 1.076238 -41.133576 -5.306709 -13.719211 42.127823 0.014094 -7.859210 -10.904628 -0.010894 0.563277 -1.548399 4.481480 5.131403 9.317647 1.781268 7.149058 2.813845 -1.399542 3.505352 -1.945258 2.156131 19.895558 -3.988282 -18.675324 30.758273 19.710960 -2.970676 12.838331 10.472513 0.000000 0.000000 0.000000 -3.573085 -1.077213 -21.758084 21.016976 -31.847784 6.059006 12.665307 14.403502 -29.406257 0.000000 0.000000 0.000000 -7.125000 0.000000 0.000000 -20.687590 58.778070 7.161096 0.000000 0.000000 0.000000 -11.733988 1.018749 13.396874 -21.691336 -32.626498 -6.418613 -29.252821 -16.336173 -13.598504 0.000000 0.000000 0.000000 7.125000 0.000000 0.000000 -1.263986 14.486150 -0.907832
-4.525425 17.935144 -9.424902 -181.262900 -74.182517 -178.026245 0.000000 0.000000 0.000000 -24.786156 -15.494223 -7.658221 3.525383 11.500485 33.987062 0.831672 -6.273719 -16.262716 0.322810 3.634171 10.051471 0.000000 0.000000 0.000000 16.962019 -0.686771 -39.837104 -12.464842 -18.579304 67.453731 -0.039751 -5.359433 -8.766783 -0.237437 -3.134857 8.654592 4.504034 6.052536 9.141615 1.550861 8.394022 2.439706 -1.763622 4.124525 -2.133267 1.798582 20.152642 -3.666982 -17.874935 31.044933 20.282201 -2.678883 12.980992 10.446595 0.000000 0.000000 0.000000 -2.593033 0.886869 -10.022692 15.849338 -25.315599 3.581516 13.546349 18.628111 -30.865427 0.000000 0.000000 0.000000 -7.125000 0.000000 0.000000 -20.877076 60.335577 8.014083 0.000000 0.000000 0.000000 -11.958954 0.606807 16.896652 -23.071760 -34.167178 -7.178617 -28.740125 -16.215258 -13.627352 0.000000 0.000000 0.000000 7.125000 0.000000 0.000000 -0.913016 14.525532 -0.654804
-3.325218 18.047920 -9.093557 -176.105002 -76.527746 -182.770881 0.000000 0.000000 0.000000 -21.765989 -16.400204 -11.804650 3.103787 10.861031 31.812886 0.358321 -9.224779 -11.638092 0.316450 3.615725 9.998067 0.000000 0.000000 0.000000 20.049576 -3.725036 -27.744532 -14.464474 -19.248649 73.617751 -0.011897 -2.780801 2.558325 -0.780754 -5.635791 15.732625 4.295368 6.352708 8.343955 1.840545 8.793101 1.772837 -1.347722 4.317953 -2.442732 1.845198 20.131786 -3.934065 -17.443440 30.988734 20.345634 -2.530379 12.981742 10.430030 0.000000 0.000000 0.000000 -1.689863 2.588424 0.725275 12.821737 -21.025397 2.389020 13.699712 24.218145 -31.446434 0.000000 0.000000 0.000000 -7.125000 0.000000 0.000000 -21.185912 60.909814 8.430015 0.000000 0.000000 0.000000 -10.906731 0.815598 18.480730 -25.335340 -36.544713 -8.488823 -28.289951 -16.820870 -13.980088 0.000000 0.000000 0.000000 7.125000 0.000000 0.000000 -0.574402 14.193410 -0.416007
-1.890887 18.062941 -8.800654 -173.474426 -80.320528 -184.624945 0.000000 0.000000 0.000000 -18.825892 -19.212734 -17.630464 2.811767 10.383943 30.229239 -0.544918 -15.377394 -3.220305 0.445838 4.283667 11.876200 0.000000 0.000000 0.000000 26.440666 0.883538 -8.537026 -8.349103 -16.366107 53.804209 -0.052535 1.931391 5.409634 -0.735169 -5.458076 15.224441 4.360681 6.328793 8.117555 1.469724 8.748247 1.816666 -1.721288 4.306154 -2.206255 1.631568 19.961342 -3.859590 -17.356884 30.676892 19.967079 -2.550716 12.907074 10.186816 0.000000 0.000000 0.000000 -0.882244 1.786889 0.906265 12.395959 -20.395521 2.238566 12.891172 22.880974 -32.116176 0.000000 0.000000 0.000000 -7.125000 0.000000 0.000000 -22.615489 61.328284 9.257220 0.000000 0.000000 0.000000 -9.258041 -0.010253 20.124425 -26.453771 -37.653249 -9.163506 -28.845662 -17.775164 -13.921852 0.000000 0.000000 0.000000 7.125000 0.000000 0.000000 -0.956416 14.180230 -0.692892
-0.091563 18.024870 -8.407919 -177.880568 -84.223696 -177.147075 0.000000 0.000000 0.000000 -16.719640 -21.294859 -25.417816 1.761649 8.349299 23.781153 -0.774468 -15.695953 9.327170 0.417167 4.105945 11.380176 0.000000 0.000000 0.000000 30.706887 7.050045 -2.558423 -3.961110 -12.107973 36.115664 -0.617706 -6.206495 -18.393181 -1.177484 -6.887215 19.381608 5.186132 6.218261 8.436930 0.818446 8.675674 1.754856 -2.856814 4.266874 -2.225760 1.023130 19.996253 -4.795089 -17.500563 31.138588 20.919191 -2.327150 12.921358 10.710238 0.000000 0.000000 0.000000 -2.817384 -0.044570 -3.606868 15.656018 -25.051835 3.499177 12.295584 17.639893 -29.114432 0.000000 0.000000 0.000000 -7.125000 0.000000 0.000000 -20.858944 58.424618 7.045501 0.000000 0.000000 0.000000 -9.292864 -2.278274 21.648081 -25.905435 -37.115200 -8.830542 -28.231755 -15.828616 -15.044018 0.000000 0.000000 0.000000 7.125000 0.000000 0.000000 -0.432800 13.015151 -0.324177
